HIERARCHY
ROOT RootJoint
{
    OFFSET   0.000000   0.000000   0.000000
    CHANNELS 6 Xposition Yposition Zposition Xrotation Yrotation Zrotation
    JOINT pelvis_lowerback
    {
        OFFSET   0.000000   0.093605   0.000000
        CHANNELS 3 Xrotation Yrotation Zrotation
        JOINT lowerback_torso
        {
            OFFSET   0.000000   0.100000   0.000000
            CHANNELS 3 Xrotation Yrotation Zrotation
            JOINT torso_head
            {
                OFFSET   0.000000   0.282350   0.000000
                CHANNELS 3 Xrotation Yrotation Zrotation
                End Site
                {
                    OFFSET   0.000000   0.192650   0.000000
                }
            }
            JOINT rTorso_Clavicle
            {
                OFFSET  -0.001000   0.157500   0.000000
                CHANNELS 3 Xrotation Yrotation Zrotation
                JOINT rShoulder
                {
                    OFFSET  -0.117647   0.000000   0.000000
                    CHANNELS 3 Xrotation Yrotation Zrotation
                    JOINT rElbow
                    {
                        OFFSET  -0.245000   0.000000   0.000000
                        CHANNELS 3 Xrotation Yrotation Zrotation
                        JOINT rWrist
                        {
                            OFFSET  -0.240000   0.000000   0.000000
                            CHANNELS 3 Xrotation Yrotation Zrotation
                            End Site
                            {
                                OFFSET  -0.116353  -0.002500   0.000000
                            }
                        }
                    }
                }
            }
            JOINT lTorso_Clavicle
            {
                OFFSET   0.001000   0.157500   0.000000
                CHANNELS 3 Xrotation Yrotation Zrotation
                JOINT lShoulder
                {
                    OFFSET   0.117647   0.000000   0.000000
                    CHANNELS 3 Xrotation Yrotation Zrotation
                    JOINT lElbow
                    {
                        OFFSET   0.245000   0.000000   0.000000
                        CHANNELS 3 Xrotation Yrotation Zrotation
                        JOINT lWrist
                        {
                            OFFSET   0.240000   0.000000   0.000000
                            CHANNELS 3 Xrotation Yrotation Zrotation
                            End Site
                            {
                                OFFSET   0.116353  -0.002500   0.000000
                            }
                        }
                    }
                }
            }
        }
    }
    JOINT rHip
    {
        OFFSET  -0.100000  -0.051395   0.000000
        CHANNELS 3 Xrotation Yrotation Zrotation
        JOINT rKnee
        {
            OFFSET   0.000000  -0.410000   0.000000
            CHANNELS 3 Xrotation Yrotation Zrotation
            JOINT rAnkle
            {
                OFFSET   0.000000  -0.390000   0.000000
                CHANNELS 3 Xrotation Yrotation Zrotation
                JOINT rToeJoint
                {
                    OFFSET   0.000000  -0.050000   0.130000
                    CHANNELS 3 Xrotation Yrotation Zrotation
                    End Site
                    {
                        OFFSET  -0.010000   0.002000   0.060000
                    }
                }
            }
        }
    }
    JOINT lHip
    {
        OFFSET   0.100000  -0.051395   0.000000
        CHANNELS 3 Xrotation Yrotation Zrotation
        JOINT lKnee
        {
            OFFSET   0.000000  -0.410000   0.000000
            CHANNELS 3 Xrotation Yrotation Zrotation
            JOINT lAnkle
            {
                OFFSET   0.000000  -0.390000   0.000000
                CHANNELS 3 Xrotation Yrotation Zrotation
                JOINT lToeJoint
                {
                    OFFSET   0.000000  -0.050000   0.130000
                    CHANNELS 3 Xrotation Yrotation Zrotation
                    End Site
                    {
                        OFFSET   0.010000   0.002000   0.060000
                    }
                }
            }
        }
    }
}
MOTION
Frames: 15
Frame Time:   0.008333
 -2.376719   0.925631   3.975860   0.000000   0.000000   0.000000   0.000000   0.000000   0.000000   0.000000   0.000000   0.000000   0.000000   0.000000   0.000000   0.000000   0.000000   0.000000   0.000000   0.000000   0.000000   0.000000   0.000000   0.000000   0.000000   0.000000   0.000000   0.000000   0.000000   0.000000   0.000000   0.000000   0.000000   0.000000   0.000000   0.000000   0.000000   0.000000   0.000000   0.000000   0.000000   0.000000   0.000000   0.000000   0.000000   0.000000   0.000000   0.000000   0.000000   0.000000   0.000000   0.000000   0.000000   0.000000   0.000000   0.000000   0.000000   0.000000   0.000000   0.000000   0.000000   0.000000   0.000000
 -2.376403   0.926137   3.975795  -0.213949   0.051448   0.192215   0.124319   0.077239  -0.162861   0.307987  -0.132912  -0.039259  -0.161750   0.078396   0.050524   0.333598  -0.546163   0.162713   0.833636   0.208552   2.178509   0.023610   1.151827  -0.014088   0.239411  -0.302822  -2.521893   0.264352   0.304216  -0.365572   0.931650  -0.026691  -2.047947   0.025146  -1.180480   0.014769   0.306072   0.297079   2.733322  -0.391812  -0.097861  -0.295222   1.821447   0.001615  -0.000793  -1.838236  -0.630535  -0.218865   0.059563   0.000165  -0.000353  -0.256372  -0.038317  -0.195628   1.880984   0.000056   0.000200  -2.015149   0.224432   0.190472   0.277776  -0.000450   0.000577
 -2.376032   0.926991   3.976119  -0.514611   0.120502   0.411291   0.232215   0.131880  -0.325772   0.670598  -0.289133  -0.103233  -0.278700   0.155268   0.104139   0.661127  -1.085082   1.002815   1.647668   0.446860   4.896737   0.053922   2.258556  -0.023910   0.529643  -0.293148  -4.340728   0.527689   0.579921  -1.451907   1.844988  -0.112035  -4.677060   0.057853  -2.318375   0.025362   0.662143   0.282043   4.743660  -0.730870  -0.201156  -0.672255   3.742280   0.003847  -0.001485  -3.555228  -1.223054  -0.445519   0.054363   0.000115  -0.000254  -0.333629  -0.070204  -0.375759   3.897207  -0.000606   0.000821  -3.897790   0.430954   0.375276   0.451997  -0.000695   0.000835
 -2.375674   0.927797   3.976746  -0.803809   0.202414   0.627536   0.290619   0.159598  -0.482034   0.993561  -0.459470  -0.176046  -0.382768   0.227038   0.157928   0.976500  -1.590852   2.264155   2.436928   0.713782   7.966576   0.083137   3.290724  -0.029576   0.815542  -0.219705  -5.382908   0.779506   0.816330  -2.974117   2.735701  -0.253258  -7.684613   0.089710  -3.385542   0.031951   1.011341   0.178012   5.925606  -1.066738  -0.297630  -1.080279   5.564585   0.005989  -0.001939  -5.158037  -1.770672  -0.674779   0.051215   0.000081  -0.000187  -0.302944  -0.097778  -0.507003   5.847855  -0.001823   0.001710  -5.652327   0.618979   0.553898   0.613523  -0.000923   0.001013
 -2.375346   0.928275   3.977593  -1.064257   0.293053   0.834662   0.306871   0.164126  -0.634506   1.265121  -0.640252  -0.253691  -0.483030   0.293786   0.210367   1.283653  -2.066520   3.768942   3.203794   1.011944  11.273241   0.107904   4.250226  -0.032241   1.087641  -0.145291  -5.849207   1.020898   1.020956  -4.739912   3.606089  -0.451291 -10.944656   0.117034  -4.383138   0.035707   1.345655   0.045794   6.492831  -1.412950  -0.385781  -1.502241   7.262937   0.007814  -0.002246  -6.657006  -2.276016  -0.903979   0.042578   0.000032  -0.000110  -0.196176  -0.122481  -0.588018   7.702020  -0.003299   0.002736  -7.289766   0.790198   0.726137   0.758357  -0.001110   0.001116
 -2.375051   0.928220   3.978600  -1.296667   0.388244   1.031293   0.291106   0.149354  -0.784898   1.491865  -0.828655  -0.335124  -0.580040   0.355869   0.260361   1.585187  -2.516893   5.397251   3.949178   1.341845  14.737467   0.127019   5.140850  -0.032855   1.343283  -0.088828  -5.926145   1.252615   1.201067  -6.622762   4.456161  -0.705382 -14.371851   0.138457  -5.314302   0.037566   1.662891  -0.092818   6.644852  -1.770489  -0.465096  -1.929845   8.840426   0.009256  -0.002479  -8.059349  -2.742082  -1.130998   0.028617  -0.000027  -0.000030  -0.030406  -0.145401  -0.624333   9.457441  -0.004804   0.003778  -8.818330   0.946070   0.891748   0.887544  -0.001252   0.001157
 -2.374821   0.927472   3.979713  -1.505307   0.485592   1.219943   0.252245   0.119215  -0.939983   1.682944  -1.021761  -0.432529  -0.673131   0.413516   0.310947   1.883239  -2.946226   7.075276   4.673168   1.703197  18.309566   0.140396   5.966649  -0.032125   1.582047  -0.057362  -5.745229   1.476907   1.362987  -8.582642   5.249433  -1.001432 -17.781669   0.153358  -6.183371   0.037921   1.963431  -0.233575   6.460232  -2.137118  -0.535389  -2.356961  10.304999   0.010271  -0.002655  -9.371377  -3.171834  -1.354222   0.010503  -0.000090   0.000045   0.181795  -0.167257  -0.621892  11.117266  -0.006234   0.004775 -10.245296   1.087878   1.050480   1.002980  -0.001350   0.001153
 -2.374802   0.925375   3.979916  -1.526387   0.307449   1.306898   0.235874   0.170812  -1.002618   1.812434  -1.111869  -0.549987  -0.918086   0.394333   0.271617   2.188527  -3.044542   8.137531   5.577082   2.012897  21.949932   0.159421   7.076046  -0.037119   1.660757  -0.192808  -4.731699   1.634221   1.541971  -9.866608   5.855562  -1.383432 -21.220082   0.167524  -7.211693   0.039228   2.101059  -0.240071   5.391777  -3.165798  -0.811973  -2.620958  12.553420   0.009486  -0.012857 -10.856731  -3.523525  -1.576179   0.251737   0.000719  -0.001785   0.428580   0.036741  -0.514111  11.825099  -0.006082   0.004302 -11.519025   1.269705   1.283636   1.367541  -0.002396   0.001659
 -2.374885   0.922117   3.979678  -1.534969   0.155372   1.368755   0.298581   0.184673  -1.065088   1.960315  -1.205297  -0.658430  -1.153239   0.370682   0.223792   2.448640  -3.053707   9.007115   6.382539   2.407836  25.270352   0.168042   8.138514  -0.040611   1.759733  -0.190074  -3.718499   1.756848   1.637659 -10.910511   6.380768  -1.821080 -24.327266   0.172373  -8.196447   0.040430   2.241097  -0.362820   4.375282  -4.242800  -1.094175  -2.815819  14.703627   0.007243  -0.020085 -12.240167  -3.849396  -1.792961   0.483119   0.001186  -0.003107   0.642390   0.222610  -0.395914  12.353677  -0.005617   0.003829 -12.716941   1.434503   1.505938   1.689432  -0.002994   0.001968
 -2.375010   0.917794   3.979197  -1.541563   0.029154   1.422604   0.409814   0.180554  -1.132029   2.126723  -1.306527  -0.760899  -1.365257   0.348008   0.175259   2.669673  -3.018419   9.733309   7.097224   2.846631  28.304175   0.169170   9.144587  -0.042457   1.864964  -0.105595  -2.858113   1.847284   1.674343 -11.782517   6.832850  -2.288669 -27.149015   0.170800  -9.131293   0.041050   2.386169  -0.564763   3.545247  -5.303123  -1.356053  -2.969832  16.694799   0.004505  -0.024166 -13.533180  -4.147525  -2.003446   0.696310   0.001399  -0.003909   0.823294   0.395609  -0.290692  12.813789  -0.005057   0.003434 -13.837496   1.583500   1.716693   1.981496  -0.003283   0.002156
 -2.375222   0.914698   3.978793  -1.652592   0.004997   1.124055   0.599561   0.134313  -0.921112   2.345660  -1.431556  -0.740108  -1.549924   0.326022   0.137921   2.860660  -2.958575  10.447715   7.731782   3.301071  31.102557   0.166176  10.082522  -0.042878   1.966760  -0.025837  -2.184547   1.904329   1.657750 -12.687383   7.214545  -2.781545 -29.794875   0.166345 -10.013762   0.040792   2.530832  -0.799597   2.879302  -6.466025  -1.649688  -2.736425  19.188517   0.000938  -0.026931 -14.422199  -4.433340  -2.161843   0.926131   0.001481  -0.004390   1.073942   0.537577   0.120422  13.225415  -0.004330   0.003275 -14.878311   1.720150   1.917325   2.291323  -0.003407   0.002492
 -2.375295   0.911690   3.978576  -1.755831   0.062010   0.910394   0.758818   0.066335  -0.831853   2.554113  -1.573175  -0.726318  -1.713688   0.305237   0.109994   3.044356  -2.913192  11.090412   8.305935   3.750701  33.722291   0.159591  10.961704  -0.041940   2.065066   0.071550  -1.518348   1.949343   1.632563 -13.456119   7.546244  -3.264698 -32.232199   0.158916 -10.845001   0.039419   2.671843  -1.072219   2.253219  -7.466347  -1.929656  -2.600076  21.414511  -0.001286  -0.026300 -15.374515  -4.692909  -2.328501   1.137522   0.001508  -0.004451   1.288362   0.674366   0.366100  13.605768  -0.003401   0.003285 -15.852077   1.843173   2.106159   2.565824  -0.003188   0.002822
 -2.375096   0.910504   3.978944  -1.955807  -0.034779   1.295721   0.927418   0.062913  -1.232641   2.777338  -1.672297  -0.928930  -1.859629   0.288516   0.061225   3.212473  -2.861250  11.818864   8.817058   4.205031  36.223959   0.151536  11.782765  -0.039593   2.160051   0.158704  -0.886157   2.002568   1.629409 -14.172549   7.847368  -3.703663 -34.457138   0.149623 -11.605435   0.037265   2.801836  -1.274475   1.755319  -8.092871  -2.062283  -3.102378  23.140823  -0.002132  -0.026013 -16.403533  -4.904654  -2.548885   1.351171   0.001691  -0.004590   1.205698   0.860812  -0.044117  14.356771  -0.002347   0.003281 -16.546928   1.961415   2.261557   2.867344  -0.002836   0.002899
 -2.375368   0.909848   3.978930  -1.867021  -0.039768   1.510976   1.027810  -0.018650  -1.530306   2.863741  -1.775205  -1.029572  -2.049907   0.281874   0.053175   3.187288  -2.886437  12.076798   9.185262   4.594527  38.420639   0.143057  12.769532  -0.036286   2.197058   0.148530   0.408456   2.030093   1.656577 -14.421290   7.962412  -4.108520 -36.425746   0.140674 -12.525573   0.035340   2.839410  -1.386597   0.544745  -8.676454  -2.274120  -3.389187  24.191640  -0.002704  -0.023309 -17.465294  -5.246730  -2.811030   1.771978   0.002136  -0.006084   0.912134   1.140140  -0.218260  14.783928  -0.001731   0.003671 -16.796438   2.087165   2.445920   3.227033  -0.002910   0.003632
 -2.375962   0.909570   3.978469  -1.648493  -0.119967   1.653222   1.180476  -0.067263  -1.784989   2.915650  -1.848417  -1.091509  -2.236270   0.276594   0.053640   3.103449  -2.850278  12.073895   9.480629   4.998180  40.303127   0.130762  13.714897  -0.033666   2.226017   0.256135   1.478854   2.007565   1.635743 -14.398576   8.032449  -4.509293 -38.090745   0.128294 -13.403952   0.034016   2.870774  -1.590427  -0.451923  -9.361387  -2.528011  -3.523577  24.890290  -0.003486  -0.020740 -18.533142  -5.584485  -3.027080   2.156049   0.001850  -0.007451   0.570191   1.409347  -0.308802  15.009112  -0.001373   0.003318 -17.071795   2.205485   2.622975   3.591122  -0.002966   0.003945
